<svg width="586" height="436" viewBox="0 0 586 436" fill="none" xmlns="http://www.w3.org/2000/svg">
<path d="M327.419 335.778H425.358C384.218 363.727 338.876 374.04 324.355 374.59C323.641 367.723 324.186 353.545 327.419 335.778ZM465.384 300.424H119.613C125.123 306.92 133.71 314.506 139.668 318.155H445.328C451.287 314.506 459.873 306.92 465.384 300.424ZM292.504 377.318C298.79 371.491 310.646 356.608 322.2 335.778H262.809C274.363 356.62 286.219 371.503 292.504 377.318ZM524.52 146.756C466.558 150.094 401.088 190.975 362.649 247.183C362.589 247.279 362.528 247.363 362.468 247.458H501.619C518.561 214.222 527.196 178.532 524.52 146.756ZM351.713 247.458C360.021 176.331 336.345 99.2576 292.504 57C248.664 99.2576 224.988 176.331 233.295 247.458H351.701H351.713ZM222.541 247.458C222.481 247.375 222.42 247.279 222.36 247.183C183.92 190.975 118.438 150.094 60.4767 146.756C57.8123 178.532 66.4351 214.21 83.3779 247.458H222.529H222.541ZM260.653 374.59C261.368 367.723 260.823 353.545 257.589 335.778H159.651C200.791 363.727 246.133 374.04 260.653 374.59ZM492.112 265.082H92.8969C95.6702 270.537 101.52 278.266 106.146 282.813H478.863C483.477 278.278 489.339 270.537 492.112 265.082Z" fill="#F5EEE5"/>
</svg>
